# xmcd CD database file
#
# Track frame offsets:
#	150
#	25052
#	46762
#
# Disc length: 857 seconds
#
# Revision: 1
# Processed by: cddbd v1.5.1PL0 Copyright (c) Steve Scherf et al.
# Submitted via: CDex 1.51
#
DISCID=17035703
DTITLE=中村一義 - ジュビリー - 威風堂々
DYEAR=1999
DGENRE=Rock
TTITLE0=ジュビリー
TTITLE1=ジュビリー (RX-78 Prototype)
TTITLE2=威風堂々 （弾き語り）
EXTD=YEAR: 1999
EXTT0=
EXTT1=
EXTT2=
PLAYORDER=
